<svg id="store-map" width="700" height="600" xmlns="http://www.w3.org/2000/svg">
	<rect width="100%" height="100%" fill="transparent" stroke="black" stroke-width="5"/>
	<rect x="50" y="50" width="30" height="200" fill="#ADA9B7" stroke="black" stroke-width="3" onclick="userCart.aisleClick('1')"/>
	<rect x="150" y="50" width="30" height="200" fill="#ADA9B7" stroke="black" stroke-width="3"/>
	<rect x="250" y="50" width="30" height="200" fill="#ADA9B7" stroke="black" stroke-width="3"/>
	<rect x="350" y="50" width="30" height="200" fill="#ADA9B7" stroke="black" stroke-width="3"/>
	<rect x="450" y="50" width="30" height="200" fill="#ADA9B7" stroke="black" stroke-width="3"/>
	<rect x="550" y="50" width="30" height="200" fill="#ADA9B7" stroke="black" stroke-width="3"/>
	<rect x="50" y="300" width="30" height="200" fill="#ADA9B7" stroke="black" stroke-width="3"/>
	<rect x="150" y="300" width="30" height="200" fill="#ADA9B7" stroke="black" stroke-width="3"/>
	<rect x="250" y="300" width="30" height="200" fill="#ADA9B7" stroke="black" stroke-width="3"/>
	<rect x="350" y="300" width="30" height="200" fill="#ADA9B7" stroke="black" stroke-width="3"/>
	<rect x="450" y="300" width="30" height="200" fill="#ADA9B7" stroke="black" stroke-width="3"/>
	<rect x="550" y="300" width="30" height="200" fill="#ADA9B7" stroke="black" stroke-width="3"/>
	<rect x="615" y="100" width="75" height="75" fill="#ADA9B7" stroke="black" stroke-width="3"/>
	<rect x="615" y="350" width="75" height="75" fill="#ADA9B7" stroke="black" stroke-width="3"/>
</svg>
